<?xml version="1.0" standalone="no"?><!DOCTYPE svg PUBLIC "-//W3C//DTD SVG 1.1//EN" "http://www.w3.org/Graphics/SVG/1.1/DTD/svg11.dtd"><svg t="1614326524918" class="icon" viewBox="0 0 1024 1024" version="1.1" xmlns="http://www.w3.org/2000/svg" p-id="2078" xmlns:xlink="http://www.w3.org/1999/xlink" width="200" height="200"><defs><style type="text/css"></style></defs><path d="M300.17254304 837.88839531C237.95748547 837.88839531 186.11160469 787.52382494 186.11160469 723.82745696s50.36457037-114.06093836 114.06093836-114.06093837c25.18228486 0 48.88325931 8.88786509 69.6216116 23.70097444l5.92524361 4.44393255V272.02763607c0-22.21966338 17.77573084-39.9953942 38.51408315-39.99539357l380.69689821-44.43932675h2.96262148C818.63135406 186.11160469 837.88839531 203.88733553 837.88839531 226.1069989v428.09884644c0 31.10752847-11.85048723 59.25243545-34.0701506 79.99078777-20.73835231 20.73835231-50.36457037 32.58883953-79.99078775 32.58883953-62.21505757 0-114.06093836-50.36457037-114.06093837-114.06093836 0-62.21505757 50.36457037-114.06093836 114.06093837-114.06093836 25.18228486 0 50.36457037 8.88786509 69.62161159 23.70097445l5.92524362 4.44393254V368.31284359l-385.14083076 41.47670528v314.03790808c-1.48131106 63.696368-51.84588078 114.06093836-114.06093837 114.06093836z m1e-8-188.12648252c-41.47670463 0-75.54685522 34.0701506-75.54685522 75.54685524s34.0701506 75.54685522 75.54685522 75.54685521 75.54685522-34.0701506 75.54685521-75.54685521c-1.48131106-42.95801569-34.0701506-75.54685522-75.54685521-75.54685524z m423.65491391-71.10292266c-41.47670463 0-75.54685522 34.0701506-75.54685522 75.54685522s34.0701506 75.54685522 75.54685522 75.54685522 75.54685522-34.0701506 75.54685521-75.54685522-34.0701506-75.54685522-75.54685521-75.54685522z m-311.07528662-207.38352441l385.14083076-41.47670463V224.62568783l-380.6968982 44.43932675h-4.44393256v102.21045114z" fill="#d81e06" p-id="2079"></path></svg>